<svg xmlns="http://www.w3.org/2000/svg" xmlns:xlink="http://www.w3.org/1999/xlink" width="246" height="60" xmlns:v="https://vecta.io/nano"><defs><path id="A" d="M.036 60h245.208V.498H.036V60h0z"/></defs><g fill-rule="evenodd"><path d="M190.422 26.432c-.737 4.841-4.434 4.841-8.01 4.841h-2.035l1.427-9.038c.086-.546.557-.948 1.11-.948h.933c2.433 0 4.733 0 5.918 1.387.709.83.924 2.059.656 3.759h0zm-1.556-12.628H175.38c-.922 0-1.707.671-1.85 1.582l-5.453 34.578c-.108.682.419 1.299 1.11 1.299h6.919a1.31 1.31 0 0 0 1.295-1.107l1.547-9.802c.144-.911.928-1.582 1.85-1.582h4.267c8.882 0 14.008-4.299 15.348-12.818.603-3.726.024-6.654-1.721-8.704-1.918-2.253-5.316-3.445-9.828-3.445h0z" fill="#2790c3"/><path d="M94.242 26.432c-.737 4.841-4.434 4.841-8.009 4.841h-2.035l1.427-9.038c.087-.546.558-.948 1.11-.948h.933c2.434 0 4.733 0 5.918 1.387.71.83.924 2.059.656 3.759h0zm-1.556-12.628H79.201c-.922 0-1.707.671-1.85 1.582l-5.453 34.578c-.107.682.42 1.299 1.11 1.299h6.439c.922 0 1.707-.671 1.851-1.581l1.472-9.328c.143-.911.928-1.582 1.85-1.582h4.267c8.882 0 14.008-4.299 15.348-12.818.603-3.726.024-6.654-1.721-8.704-1.918-2.253-5.317-3.445-9.828-3.445h0zm31.306 25.041c-.624 3.69-3.553 6.167-7.288 6.167-1.873 0-3.372-.602-4.336-1.743-.955-1.131-1.315-2.742-1.012-4.536.582-3.656 3.558-6.213 7.236-6.213 1.834 0 3.322.608 4.305 1.759.989 1.159 1.378 2.781 1.095 4.566h0zm8.999-12.568h-6.457c-.553 0-1.024.402-1.11.949l-.284 1.805-.452-.655c-1.398-2.03-4.515-2.708-7.627-2.708-7.134 0-13.228 5.406-14.414 12.988-.618 3.782.259 7.397 2.404 9.92 1.97 2.318 4.782 3.283 8.133 3.283 5.75 0 8.939-3.694 8.939-3.694l-.288 1.795c-.108.682.419 1.3 1.11 1.3h5.815a1.87 1.87 0 0 0 1.85-1.581l3.491-22.104c.108-.682-.419-1.299-1.11-1.299h0z" fill="#27346a"/><path d="M220.172 38.845c-.624 3.69-3.552 6.167-7.288 6.167-1.873 0-3.372-.602-4.336-1.743-.955-1.131-1.315-2.742-1.012-4.536.581-3.656 3.557-6.213 7.236-6.213 1.833 0 3.322.608 4.305 1.759.989 1.159 1.378 2.781 1.095 4.566h0zm8.999-12.568h-6.457c-.553 0-1.024.402-1.11.949l-.284 1.805-.451-.655c-1.399-2.03-4.515-2.708-7.627-2.708-7.133 0-13.228 5.406-14.414 12.988-.617 3.782.259 7.397 2.404 9.92 1.971 2.318 4.782 3.283 8.133 3.283 5.75 0 8.939-3.694 8.939-3.694l-.288 1.795c-.108.682.419 1.3 1.11 1.3h5.815c.922 0 1.707-.67 1.851-1.581l3.49-22.104c.108-.682-.419-1.299-1.11-1.299h0z" fill="#2790c3"/><mask id="B" fill="#fff"><use xlink:href="#A"/></mask><path d="M167.382 26.278h-6.49c-.621 0-1.201.308-1.55.821l-8.953 13.186-3.795-12.671c-.237-.793-.967-1.336-1.795-1.336h-6.38c-.77 0-1.313.758-1.064 1.487l7.147 20.977-6.722 9.485c-.528.744.005 1.774.917 1.774h6.484c.615 0 1.19-.301 1.54-.807l21.584-31.151c.516-.745-.017-1.765-.924-1.765" fill="#27346a" mask="url(#B)"/><path d="M236.781 14.753l-5.535 35.21c-.107.682.42 1.299 1.11 1.299h5.567c.922 0 1.707-.671 1.85-1.581l5.457-34.578c.108-.682-.419-1.299-1.11-1.299h-6.229c-.553 0-1.024.403-1.11.95" fill="#2790c3" mask="url(#B)"/><g fill="#27346a"><path d="M25.547 57.548l1.813-11.495.117-.637a2.36 2.36 0 0 1 .798-1.425c.427-.365.972-.566 1.534-.566h1.439c2.399 0 4.604-.256 6.552-.762 2.079-.539 3.928-1.378 5.495-2.493 1.662-1.182 3.058-2.71 4.149-4.54 1.152-1.931 1.997-4.256 2.513-6.909.456-2.343.542-4.441.255-6.235-.304-1.896-1.034-3.513-2.17-4.809-.689-.785-1.571-1.465-2.621-2.021l-.025-.013-.001-.03c.367-2.339.353-4.29-.042-5.969s-1.199-3.198-2.455-4.629C40.296 2.048 35.562.544 28.828.544H10.334a2.6 2.6 0 0 0-1.688.623c-.47.402-.782.96-.879 1.571L.066 51.57c-.07.445.058.898.351 1.24s.72.541 1.171.541h11.473l-.01.055-.788 4.996a1.34 1.34 0 0 0 1.325 1.552h9.623a2.27 2.27 0 0 0 2.241-1.915l.095-.49" mask="url(#B)"/><path d="M18.954 15.676c.122-.774.618-1.407 1.287-1.728.304-.145.644-.227.999-.227h14.496c1.718 0 3.319.113 4.783.348l1.221.233 1.151.295.548.171c.719.239 1.388.52 2.004.846.726-4.628-.005-7.778-2.508-10.631C40.178 1.843 35.199.498 28.828.498H10.334c-1.302 0-2.41.947-2.613 2.233L.02 51.563a1.59 1.59 0 0 0 1.568 1.835h11.417l5.949-37.721" mask="url(#B)"/></g><path d="M45.443 15.615h0l-.189 1.083c-2.438 12.522-10.782 16.851-21.439 16.851h-5.427c-1.302 0-2.401.948-2.604 2.234l-3.567 22.613A1.39 1.39 0 0 0 13.588 60h9.624c1.139 0 2.108-.828 2.286-1.954l.095-.489 1.813-11.496.117-.635c.178-1.125 1.147-1.954 2.286-1.954h1.439c9.323 0 16.623-3.788 18.756-14.742.891-4.577.43-8.398-1.927-11.084-.713-.812-1.6-1.484-2.635-2.032" fill="#2790c3"/><path d="M42.891 14.598l-1.151-.295-1.221-.233c-1.464-.236-3.065-.348-4.783-.348H21.24c-.356 0-.695.081-.999.227-.668.321-1.165.954-1.287 1.728l-3.081 19.536-.089.57c.203-1.286 1.302-2.234 2.604-2.234h5.427c10.657 0 19.001-4.329 21.439-16.851.073-.37.134-.73.189-1.083-.616-.326-1.285-.607-2.004-.846-.18-.06-.362-.117-.548-.171" fill="#1f264f"/></g></svg>